<mxfile host="app.diagrams.net">
  <diagram name="Plutus Integration Flow with Kafka Streaming" id="plutusKafkaDiagram">
    <mxGraphModel dx="1296" dy="741" grid="1" gridSize="10" guides="1" tooltips="1" connect="1" arrows="1" fold="1" page="1" pageScale="1" pageWidth="827" pageHeight="1169">
      <root>
        <mxCell id="0" />
        <mxCell id="1" parent="0" />

        <!-- Virtual APAC Table -->
        <mxCell id="2" value="Virtual APAC Table" style="shape=rectangle;whiteSpace=wrap;html=1;fillColor=#FCE5CD;" vertex="1" parent="1">
          <mxGeometry x="40" y="100" width="160" height="60" as="geometry" />
        </mxCell>

        <!-- ROS Simulation -->
        <mxCell id="3" value="ROS Simulation" style="shape=rectangle;whiteSpace=wrap;html=1;fillColor=#D9EAD3;" vertex="1" parent="1">
          <mxGeometry x="240" y="100" width="140" height="60" as="geometry" />
        </mxCell>

        <!-- Kafka -->
        <mxCell id="4" value="Kafka (Message Streaming Layer)" style="shape=rectangle;whiteSpace=wrap;html=1;fillColor=#FFF2CC;" vertex="1" parent="1">
          <mxGeometry x="420" y="100" width="180" height="60" as="geometry" />
        </mxCell>

        <!-- Plutus DB -->
        <mxCell id="5" value="Plutus DB" style="shape=rectangle;whiteSpace=wrap;html=1;fillColor=#DAE8FC;" vertex="1" parent="1">
          <mxGeometry x="640" y="100" width="120" height="60" as="geometry" />
        </mxCell>

        <!-- Finacle Data -->
        <mxCell id="6" value="Finacle Data" style="shape=rectangle;whiteSpace=wrap;html=1;fillColor=#E1D5E7;" vertex="1" parent="1">
          <mxGeometry x="640" y="200" width="120" height="60" as="geometry" />
        </mxCell>

        <!-- Join Logic -->
        <mxCell id="7" value="Join Logic&#10;(Plutus + APAC)" style="shape=rectangle;whiteSpace=wrap;html=1;fillColor=#EAD1DC;" vertex="1" parent="1">
          <mxGeometry x="800" y="150" width="160" height="60" as="geometry" />
        </mxCell>

        <!-- Final Output -->
        <mxCell id="8" value="Virtual Account Master" style="shape=rectangle;whiteSpace=wrap;html=1;fillColor=#CFE2F3;" vertex="1" parent="1">
          <mxGeometry x="1000" y="150" width="160" height="60" as="geometry" />
        </mxCell>

        <!-- Edges -->
        <mxCell id="9" style="endArrow=block;html=1;" edge="1" parent="1" source="2" target="3"><mxGeometry relative="1" as="geometry" /></mxCell>
        <mxCell id="10" style="endArrow=block;html=1;" edge="1" parent="1" source="3" target="4"><mxGeometry relative="1" as="geometry" /></mxCell>
        <mxCell id="11" style="endArrow=block;html=1;" edge="1" parent="1" source="4" target="5"><mxGeometry relative="1" as="geometry" /></mxCell>
        <mxCell id="12" style="endArrow=block;html=1;" edge="1" parent="1" source="5" target="7"><mxGeometry relative="1" as="geometry" /></mxCell>
        <mxCell id="13" style="endArrow=block;html=1;" edge="1" parent="1" source="6" target="7"><mxGeometry relative="1" as="geometry" /></mxCell>
        <mxCell id="14" style="endArrow=block;html=1;" edge="1" parent="1" source="7" target="8"><mxGeometry relative="1" as="geometry" /></mxCell>
      </root>
    </mxGraphModel>
  </diagram>
</mxfile>